<svg xmlns="http://www.w3.org/2000/svg" version="1.1" xmlns:xlink="http://www.w3.org/1999/xlink" xmlns:svgjs="http://svgjs.dev/svgjs" width="2000" height="217" viewBox="0 0 2000 217"><g transform="matrix(1,0,0,1,-1.2121212121212466,1.1263847109999574)"><svg viewBox="0 0 396 43" data-background-color="#293040" preserveAspectRatio="xMidYMid meet" height="217" width="2000" xmlns="http://www.w3.org/2000/svg" xmlns:xlink="http://www.w3.org/1999/xlink"><g id="tight-bounds" transform="matrix(1,0,0,1,0.2400000000000091,-0.22320065701842395)"><svg viewBox="0 0 395.52 43.44640131403685" height="43.44640131403685" width="395.52"><g><svg viewBox="0 0 534.6871930793191 58.7334" height="43.44640131403685" width="395.52"><g><svg viewBox="0 0 534.6871930793191 58.7334" height="58.7334" width="534.6871930793191"><g id="textblocktransform"><svg viewBox="0 0 534.6871930793191 58.7334" height="58.7334" width="534.6871930793191" id="textblock"><g><svg viewBox="0 0 534.6871930793191 58.7334" height="58.7334" width="534.6871930793191"><g><svg><g></g><g></g></svg></g><g><svg><g></g><g><svg></svg></g></svg></g><g id="text-0"><svg viewBox="0 0 534.6871930793191 58.7334" height="58.7334" width="534.6871930793191"><g><svg xmlns="http://www.w3.org/2000/svg" xmlns:xlink="http://www.w3.org/1999/xlink" version="1.0" x="0" y="0" viewBox="0 0 100 46.873999999999995" enable-background="new 0 0 100 46.875" xml:space="preserve" width="125.30059307931904" height="58.7334" class="icon-cg-0" data-fill-palette-color="accent" id="cg-0"><g fill="#d5b263" data-fill-palette-color="accent"><path d="M100 7.812V0H0v3.906 3.906 31.25 3.906 3.906h100v-7.812H53.125V7.812H100zM95.156 2.37c0-0.446 0.361-0.808 0.808-0.808h3.071c0.445 0 0.808 0.362 0.808 0.808v3.071c0 0.446-0.362 0.808-0.808 0.808h-3.071c-0.446 0-0.808-0.362-0.808-0.808V2.37zM86.719 2.37c0-0.446 0.362-0.808 0.809-0.808h3.07c0.446 0 0.809 0.362 0.809 0.808v3.071c0 0.446-0.362 0.808-0.809 0.808h-3.07c-0.446 0-0.809-0.362-0.809-0.808V2.37zM78.281 2.37c0-0.446 0.361-0.808 0.808-0.808h3.071c0.445 0 0.808 0.362 0.808 0.808v3.071c0 0.446-0.362 0.808-0.808 0.808h-3.071c-0.446 0-0.808-0.362-0.808-0.808V2.37zM69.844 2.37c0-0.446 0.362-0.808 0.809-0.808h3.07c0.446 0 0.809 0.362 0.809 0.808v3.071c0 0.446-0.362 0.808-0.809 0.808h-3.07c-0.446 0-0.809-0.362-0.809-0.808V2.37zM61.406 2.37c0-0.446 0.361-0.808 0.808-0.808h3.071c0.445 0 0.808 0.362 0.808 0.808v3.071c0 0.446-0.362 0.808-0.808 0.808h-3.071c-0.446 0-0.808-0.362-0.808-0.808V2.37zM45.156 2.37c0-0.446 0.362-0.808 0.808-0.808h3.071c0.446 0 0.808 0.362 0.808 0.808v3.071c0 0.446-0.362 0.808-0.808 0.808h-3.071c-0.446 0-0.808-0.362-0.808-0.808V2.37zM36.719 2.37c0-0.446 0.362-0.808 0.808-0.808h3.071c0.446 0 0.808 0.362 0.808 0.808v3.071c0 0.446-0.362 0.808-0.808 0.808h-3.071c-0.446 0-0.808-0.362-0.808-0.808V2.37zM28.281 2.37c0-0.446 0.362-0.808 0.808-0.808h3.071c0.446 0 0.808 0.362 0.808 0.808v3.071c0 0.446-0.362 0.808-0.808 0.808h-3.071c-0.446 0-0.808-0.362-0.808-0.808V2.37zM19.844 2.37c0-0.446 0.362-0.808 0.808-0.808h3.071c0.446 0 0.808 0.362 0.808 0.808v3.071c0 0.446-0.362 0.808-0.808 0.808h-3.071c-0.446 0-0.808-0.362-0.808-0.808V2.37zM11.406 2.37c0-0.446 0.362-0.808 0.808-0.808h3.071c0.446 0 0.808 0.362 0.808 0.808v3.071c0 0.446-0.362 0.808-0.808 0.808h-3.071c-0.446 0-0.808-0.362-0.808-0.808V2.37zM2.969 2.37c0-0.446 0.362-0.808 0.808-0.808h3.071c0.446 0 0.808 0.362 0.808 0.808v3.071c0 0.446-0.362 0.808-0.808 0.808H3.777c-0.446 0-0.808-0.362-0.808-0.808V2.37zM7.656 44.504c0 0.447-0.362 0.809-0.808 0.809H3.777c-0.446 0-0.808-0.361-0.808-0.809v-3.07c0-0.447 0.362-0.809 0.808-0.809h3.071c0.446 0 0.808 0.361 0.808 0.809V44.504zM16.094 44.504c0 0.447-0.362 0.809-0.808 0.809h-3.071c-0.446 0-0.808-0.361-0.808-0.809v-3.07c0-0.447 0.362-0.809 0.808-0.809h3.071c0.446 0 0.808 0.361 0.808 0.809V44.504zM24.531 44.504c0 0.447-0.362 0.809-0.808 0.809h-3.071c-0.446 0-0.808-0.361-0.808-0.809v-3.07c0-0.447 0.362-0.809 0.808-0.809h3.071c0.446 0 0.808 0.361 0.808 0.809V44.504zM32.969 44.504c0 0.447-0.362 0.809-0.808 0.809H29.09c-0.446 0-0.808-0.361-0.808-0.809v-3.07c0-0.447 0.362-0.809 0.808-0.809h3.071c0.446 0 0.808 0.361 0.808 0.809V44.504zM41.406 44.504c0 0.447-0.362 0.809-0.808 0.809h-3.071c-0.446 0-0.808-0.361-0.808-0.809v-3.07c0-0.447 0.362-0.809 0.808-0.809h3.071c0.446 0 0.808 0.361 0.808 0.809V44.504zM49.844 44.504c0 0.447-0.362 0.809-0.808 0.809h-3.071c-0.446 0-0.808-0.361-0.808-0.809v-3.07c0-0.447 0.362-0.809 0.808-0.809h3.071c0.446 0 0.808 0.361 0.808 0.809V44.504zM50 39.062H3.125V7.812H50V39.062zM95.156 41.434c0-0.447 0.361-0.809 0.808-0.809h3.071c0.445 0 0.808 0.361 0.808 0.809v3.07c0 0.447-0.362 0.809-0.808 0.809h-3.071c-0.446 0-0.808-0.361-0.808-0.809V41.434zM86.719 41.434c0-0.447 0.362-0.809 0.809-0.809h3.07c0.446 0 0.809 0.361 0.809 0.809v3.07c0 0.447-0.362 0.809-0.809 0.809h-3.07c-0.446 0-0.809-0.361-0.809-0.809V41.434zM78.281 41.434c0-0.447 0.361-0.809 0.808-0.809h3.071c0.445 0 0.808 0.361 0.808 0.809v3.07c0 0.447-0.362 0.809-0.808 0.809h-3.071c-0.446 0-0.808-0.361-0.808-0.809V41.434zM69.844 41.434c0-0.447 0.362-0.809 0.809-0.809h3.07c0.446 0 0.809 0.361 0.809 0.809v3.07c0 0.447-0.362 0.809-0.809 0.809h-3.07c-0.446 0-0.809-0.361-0.809-0.809V41.434zM61.406 41.434c0-0.447 0.361-0.809 0.808-0.809h3.071c0.445 0 0.808 0.361 0.808 0.809v3.07c0 0.447-0.362 0.809-0.808 0.809h-3.071c-0.446 0-0.808-0.361-0.808-0.809V41.434zM53.777 40.625h3.07c0.446 0 0.809 0.361 0.809 0.807v3.072c0 0.445-0.362 0.807-0.809 0.807h-3.07c-0.446 0-0.809-0.361-0.809-0.807v-3.072C52.969 40.986 53.331 40.625 53.777 40.625zM52.969 5.441V2.37c0-0.446 0.362-0.808 0.809-0.808h3.07c0.446 0 0.809 0.362 0.809 0.808v3.071c0 0.446-0.362 0.808-0.809 0.808h-3.07C53.331 6.25 52.969 5.888 52.969 5.441z" fill="#d5b263" data-fill-palette-color="accent"></path></g></svg></g><g transform="matrix(1,0,0,1,139.16719307931905,0.28552519748835437)"><svg width="395.52" viewBox="2.8 -35.85 246.82999999999998 36.300000000000004" height="58.162349605023294" data-palette-color="#d5b263"><path d="M2.8 0.15L2.8 0.15Q2.8-0.55 2.85-1.07 2.9-1.6 3.05-2L3.05-2Q4.4-2.1 5.15-2.48 5.9-2.85 6.2-3.78 6.5-4.7 6.5-6.35L6.5-6.35 6.5-27.45Q6.5-29.15 6.2-30.05 5.9-30.95 5.15-31.35 4.4-31.75 3.05-31.8L3.05-31.8Q2.9-32.2 2.85-32.75 2.8-33.3 2.8-33.95L2.8-33.95Q3.65-33.9 4.7-33.88 5.75-33.85 6.93-33.83 8.1-33.8 9.2-33.8 10.3-33.8 11.2-33.8L11.2-33.8 11.2-7.35Q11.2-5.2 11.65-4.08 12.1-2.95 13.1-2.53 14.1-2.1 15.65-2L15.65-2Q15.8-1.6 15.85-1.07 15.9-0.55 15.9 0.15L15.9 0.15Q15.15 0.1 14.13 0.08 13.1 0.05 11.95 0.03 10.8 0 9.6 0L9.6 0Q7.85 0 5.83 0.03 3.8 0.05 2.8 0.15ZM22.6-10.25L22.6-10.25Q21.95-10.25 21.4-10.3 20.85-10.35 20.3-10.5L20.3-10.5Q20.1-13.1 18.93-14.03 17.75-14.95 14.65-14.95L14.65-14.95 11.05-14.95 11.05-17.1 14.65-17.1Q17.75-17.1 18.95-17.9 20.15-18.7 20.2-21.15L20.2-21.15Q20.85-21.35 21.4-21.43 21.95-21.5 22.6-21.5L22.6-21.5Q22.55-20.25 22.53-18.8 22.5-17.35 22.5-16.05L22.5-16.05Q22.5-14.75 22.53-13.15 22.55-11.55 22.6-10.25ZM23.85-25.45L23.85-25.45Q23.75-27 23.05-28.45 22.35-29.9 20.63-30.85 18.9-31.8 15.65-31.8L15.65-31.8 9.95-31.8 11.05-33.8Q15-33.8 17.82-33.83 20.65-33.85 22.45-33.9 24.25-33.95 25.05-33.95L25.05-33.95Q25.15-32.85 25.3-31.4 25.45-29.95 25.65-28.55 25.85-27.15 26.1-26.05L26.1-26.05Q25.7-25.7 25.13-25.58 24.55-25.45 23.85-25.45ZM29.9 0.15L29.9 0.15Q29.9-0.35 29.95-0.93 30-1.5 30.15-2L30.15-2Q32.15-2 32.87-2.93 33.6-3.85 33.6-6.35L33.6-6.35 33.6-16.25Q33.6-17.45 33.37-18.23 33.15-19 32.35-19.4 31.55-19.8 29.85-19.8L29.85-19.8Q29.85-20.35 29.95-20.8 30.05-21.25 30.3-21.65L30.3-21.65Q31.05-21.65 32.42-21.9 33.8-22.15 35.1-22.55 36.4-22.95 37-23.35L37-23.35Q37.45-23.2 37.77-22.75 38.1-22.3 38.1-21.35L38.1-21.35 38.1-6.35Q38.1-3.85 38.77-2.93 39.45-2 41.05-2L41.05-2Q41.2-1.5 41.25-0.85 41.3-0.2 41.3 0.15L41.3 0.15Q40.45 0.1 39.5 0.08 38.55 0.05 37.57 0.03 36.6 0 35.65 0L35.65 0Q34.7 0 33.67 0.03 32.65 0.05 31.7 0.08 30.75 0.1 29.9 0.15ZM35.45-29L35.45-29Q34.2-29 33.35-29.85 32.5-30.7 32.5-31.9L32.5-31.9Q32.5-33.25 33.4-34.1 34.3-34.95 35.45-34.95L35.45-34.95Q36.8-34.95 37.62-34.1 38.45-33.25 38.45-31.9L38.45-31.9Q38.45-30.75 37.57-29.88 36.7-29 35.45-29ZM44.89 0.15L44.89 0.15Q44.89-0.35 44.95-0.93 44.99-1.5 45.14-2L45.14-2Q47.14-2 47.87-2.93 48.59-3.85 48.59-6.35L48.59-6.35 48.59-28.75Q48.59-29.95 48.37-30.73 48.14-31.5 47.34-31.9 46.55-32.3 44.84-32.3L44.84-32.3Q44.84-32.85 44.95-33.3 45.05-33.75 45.3-34.15L45.3-34.15Q46.05-34.15 47.42-34.4 48.8-34.65 50.09-35.05 51.39-35.45 51.99-35.85L51.99-35.85Q52.45-35.7 52.77-35.25 53.09-34.8 53.09-33.85L53.09-33.85 53.09-6.35Q53.09-3.85 53.77-2.93 54.45-2 56.05-2L56.05-2Q56.2-1.5 56.24-0.85 56.3-0.2 56.3 0.15L56.3 0.15Q55.45 0.1 54.49 0.08 53.55 0.05 52.57 0.03 51.59 0 50.64 0L50.64 0Q49.7 0 48.67 0.03 47.64 0.05 46.7 0.08 45.74 0.1 44.89 0.15ZM59.89 0.15L59.89 0.15Q59.89-0.55 59.94-1.07 59.99-1.6 60.14-2L60.14-2Q62.14-2.1 62.87-2.98 63.59-3.85 63.59-6.35L63.59-6.35 63.59-16.25Q63.59-17.45 63.34-18.2 63.09-18.95 62.29-19.35 61.49-19.75 59.84-19.8L59.84-19.8Q59.84-20.35 59.94-20.8 60.04-21.25 60.29-21.65L60.29-21.65Q61.14-21.7 62.42-21.98 63.69-22.25 64.89-22.63 66.09-23 66.74-23.35L66.74-23.35Q67.19-23.2 67.52-22.75 67.84-22.3 67.84-21.35L67.84-21.35Q67.84-20.55 67.77-19.5 67.69-18.45 67.44-16.4L67.44-16.4 66.94-16.35Q67.64-18.25 67.97-18.9 68.29-19.55 68.44-19.75L68.44-19.75Q69.24-20.9 71.12-22.13 72.99-23.35 75.59-23.35L75.59-23.35Q77.69-23.35 79.44-22.4 81.19-21.45 81.99-19.15L81.99-19.15Q82.19-18.55 82.19-17.5L82.19-17.5 82.04-17.5Q82.49-18.75 83.04-19.5L83.04-19.5Q83.89-20.65 85.74-21.88 87.59-23.1 90.19-23.1L90.19-23.1Q92.09-23.1 93.69-22.33 95.29-21.55 96.27-19.78 97.24-18 97.24-14.95L97.24-14.95 97.24-6.35Q97.24-4.65 97.57-3.73 97.89-2.8 98.57-2.45 99.24-2.1 100.24-2L100.24-2Q100.39-1.55 100.44-1.05 100.49-0.55 100.49 0.15L100.49 0.15Q99.39 0.05 97.97 0.03 96.54 0 95.04 0L95.04 0Q94.04 0 92.99 0.03 91.94 0.05 90.94 0.08 89.94 0.1 89.09 0.15L89.09 0.15Q89.09-0.55 89.14-1.07 89.19-1.6 89.34-2L89.34-2Q90.69-2.1 91.44-2.48 92.19-2.85 92.49-3.78 92.79-4.7 92.79-6.35L92.79-6.35 92.79-13.95Q92.79-17.5 91.52-18.78 90.24-20.05 88.19-20.05L88.19-20.05Q86.94-20.05 85.64-19.23 84.34-18.4 83.49-16.57 82.64-14.75 82.64-11.7L82.64-11.7 82.64-6.35Q82.64-3.75 83.44-2.93 84.24-2.1 86.14-2L86.14-2Q86.29-1.55 86.34-1.05 86.39-0.55 86.39 0.15L86.39 0.15Q85.14 0.05 83.52 0.03 81.89 0 80.44 0L80.44 0Q78.99 0 77.42 0.03 75.84 0.05 74.49 0.15L74.49 0.15Q74.49-0.55 74.54-1.07 74.59-1.6 74.74-2L74.74-2Q76.09-2.1 76.84-2.48 77.59-2.85 77.89-3.78 78.19-4.7 78.19-6.35L78.19-6.35 78.19-14.2Q78.19-17.75 76.92-19.03 75.64-20.3 73.59-20.3L73.59-20.3Q72.34-20.3 71.04-19.48 69.74-18.65 68.89-16.82 68.04-15 68.04-11.95L68.04-11.95 68.04-6.35Q68.04-3.85 68.79-2.98 69.54-2.1 71.54-2L71.54-2Q71.69-1.55 71.74-1.05 71.79-0.55 71.79 0.15L71.79 0.15Q70.94 0.1 69.89 0.08 68.84 0.05 67.79 0.03 66.74 0 65.84 0L65.84 0Q64.99 0 63.89 0.03 62.79 0.05 61.74 0.08 60.69 0.1 59.89 0.15ZM105.09 0.15L105.09 0.15Q105.09-0.55 105.14-1.07 105.19-1.6 105.34-2L105.34-2Q106.69-2.1 107.44-2.48 108.19-2.85 108.49-3.78 108.79-4.7 108.79-6.35L108.79-6.35 108.79-27.45Q108.79-29.15 108.49-30.05 108.19-30.95 107.44-31.35 106.69-31.75 105.34-31.8L105.34-31.8Q105.19-32.2 105.14-32.75 105.09-33.3 105.09-33.95L105.09-33.95Q105.94-33.9 106.99-33.88 108.04-33.85 109.22-33.83 110.39-33.8 111.49-33.8 112.59-33.8 113.49-33.8L113.49-33.8 113.49-7.35Q113.49-5.2 113.94-4.08 114.39-2.95 115.39-2.53 116.39-2.1 117.94-2L117.94-2Q118.09-1.6 118.14-1.07 118.19-0.55 118.19 0.15L118.19 0.15Q117.44 0.1 116.42 0.08 115.39 0.05 114.24 0.03 113.09 0 111.89 0L111.89 0Q110.14 0 108.12 0.03 106.09 0.05 105.09 0.15ZM124.89-10.25L124.89-10.25Q124.24-10.25 123.69-10.3 123.14-10.35 122.59-10.5L122.59-10.5Q122.39-13.1 121.22-14.03 120.04-14.95 116.94-14.95L116.94-14.95 113.34-14.95 113.34-17.1 116.94-17.1Q120.04-17.1 121.24-17.9 122.44-18.7 122.49-21.15L122.49-21.15Q123.14-21.35 123.69-21.43 124.24-21.5 124.89-21.5L124.89-21.5Q124.84-20.25 124.82-18.8 124.79-17.35 124.79-16.05L124.79-16.05Q124.79-14.75 124.82-13.15 124.84-11.55 124.89-10.25ZM126.14-25.45L126.14-25.45Q126.04-27 125.34-28.45 124.64-29.9 122.92-30.85 121.19-31.8 117.94-31.8L117.94-31.8 112.24-31.8 113.34-33.8Q117.29-33.8 120.12-33.83 122.94-33.85 124.74-33.9 126.54-33.95 127.34-33.95L127.34-33.95Q127.44-32.85 127.59-31.4 127.74-29.95 127.94-28.55 128.14-27.15 128.39-26.05L128.39-26.05Q127.99-25.7 127.42-25.58 126.84-25.45 126.14-25.45ZM141.59 0.2L141.59 0.2Q138.24 0.2 136.34-1.75 134.44-3.7 134.44-8.7L134.44-8.7 134.44-16.25Q134.44-18 133.94-18.88 133.44-19.75 131.14-19.8L131.14-19.8Q131.14-20.35 131.21-20.78 131.29-21.2 131.49-21.65L131.49-21.65Q133.04-21.75 134.86-22.25 136.69-22.75 137.84-23.35L137.84-23.35Q138.29-23.2 138.61-22.73 138.94-22.25 138.94-21.15L138.94-21.15 138.94-9.8Q138.94-6.45 139.86-4.65 140.79-2.85 143.09-2.85L143.09-2.85Q145.59-2.85 147.26-4.95 148.94-7.05 148.94-11.4L148.94-11.4 148.94-16.5Q148.94-18.25 148.31-19.13 147.69-20 145.19-20.05L145.19-20.05Q145.19-20.6 145.24-21.03 145.29-21.45 145.54-21.9L145.54-21.9Q147.49-22 149.36-22.43 151.24-22.85 152.34-23.35L152.34-23.35Q152.79-23.2 153.11-22.73 153.44-22.25 153.44-21.15L153.44-21.15 153.44-6.65 149.54-4.8Q149.29-4.15 148.84-3.53 148.39-2.9 147.84-2.35L147.84-2.35Q146.54-1.05 145.09-0.43 143.64 0.2 141.59 0.2ZM150.54 0.45L150.54 0.45Q150.04 0.2 149.66-0.28 149.29-0.75 149.29-2.45L149.29-2.45Q149.29-3 149.36-4 149.44-5 149.79-6.8L149.79-6.8 153.44-6.8Q153.44-5.65 153.64-4.88 153.84-4.1 154.51-3.75 155.19-3.4 156.54-3.4L156.54-3.4Q156.54-2.9 156.49-2.27 156.44-1.65 156.24-1.1L156.24-1.1Q154.99-1.05 153.34-0.63 151.69-0.2 150.54 0.45ZM176.29-21.6L176.29-21.6Q176.24-20.4 176.21-19.05 176.19-17.7 176.39-16.4L176.39-16.4Q175.89-16.1 175.24-15.95 174.59-15.8 173.89-15.8L173.89-15.8Q173.79-17.2 173.06-18.45 172.34-19.7 171.14-20.5 169.94-21.3 168.29-21.3L168.29-21.3Q166.74-21.3 165.81-20.55 164.89-19.8 164.89-18.55L164.89-18.55Q164.89-17.7 165.26-17.05 165.64-16.4 166.91-15.68 168.19-14.95 170.84-13.9L170.84-13.9Q173.54-12.9 175.09-11.9 176.64-10.9 177.29-9.65 177.94-8.4 177.94-6.6L177.94-6.6Q177.94-4.5 176.74-2.9 175.54-1.3 173.46-0.43 171.39 0.45 168.79 0.45L168.79 0.45Q165.79 0.45 164.01-0.03 162.24-0.5 160.54-1.4L160.54-1.4Q160.64-2.2 160.66-3.35 160.69-4.5 160.69-5.65 160.69-6.8 160.59-7.6L160.59-7.6Q160.99-7.9 161.71-8.03 162.44-8.15 163.19-8.15L163.19-8.15Q163.59-5 165.14-3.45 166.69-1.9 169.29-1.9L169.29-1.9Q171.34-1.9 172.46-2.8 173.59-3.7 173.59-5.1L173.59-5.1Q173.59-6 173.16-6.65 172.74-7.3 171.59-7.95 170.44-8.6 168.19-9.5L168.19-9.5Q165.49-10.6 163.86-11.55 162.24-12.5 161.51-13.8 160.79-15.1 160.79-17.1L160.79-17.1Q160.79-18.7 161.59-19.88 162.39-21.05 163.66-21.83 164.94-22.6 166.39-22.98 167.84-23.35 169.09-23.35L169.09-23.35Q171.34-23.35 173.04-22.9 174.74-22.45 176.29-21.6ZM181.78 0.15L181.78 0.15Q181.78-0.35 181.83-0.93 181.88-1.5 182.03-2L182.03-2Q184.03-2 184.76-2.93 185.48-3.85 185.48-6.35L185.48-6.35 185.48-16.25Q185.48-17.45 185.26-18.23 185.03-19 184.23-19.4 183.43-19.8 181.73-19.8L181.73-19.8Q181.73-20.35 181.83-20.8 181.93-21.25 182.18-21.65L182.18-21.65Q182.93-21.65 184.31-21.9 185.68-22.15 186.98-22.55 188.28-22.95 188.88-23.35L188.88-23.35Q189.33-23.2 189.66-22.75 189.98-22.3 189.98-21.35L189.98-21.35 189.98-6.35Q189.98-3.85 190.66-2.93 191.33-2 192.93-2L192.93-2Q193.08-1.5 193.13-0.85 193.18-0.2 193.18 0.15L193.18 0.15Q192.33 0.1 191.38 0.08 190.43 0.05 189.46 0.03 188.48 0 187.53 0L187.53 0Q186.58 0 185.56 0.03 184.53 0.05 183.58 0.08 182.63 0.1 181.78 0.15ZM187.33-29L187.33-29Q186.08-29 185.23-29.85 184.38-30.7 184.38-31.9L184.38-31.9Q184.38-33.25 185.28-34.1 186.18-34.95 187.33-34.95L187.33-34.95Q188.68-34.95 189.51-34.1 190.33-33.25 190.33-31.9L190.33-31.9Q190.33-30.75 189.46-29.88 188.58-29 187.33-29ZM208.28 0.45L208.28 0.45Q204.88 0.45 202.33-1.03 199.78-2.5 198.38-5.18 196.98-7.85 196.98-11.45L196.98-11.45Q196.98-14.85 198.43-17.55 199.88-20.25 202.43-21.8 204.98-23.35 208.28-23.35L208.28-23.35Q211.83-23.35 214.36-21.85 216.88-20.35 218.23-17.68 219.58-15 219.58-11.45L219.58-11.45Q219.58-8.05 218.16-5.35 216.73-2.65 214.21-1.1 211.68 0.45 208.28 0.45ZM208.68-1.95L208.68-1.95Q211.68-1.95 213.13-4.42 214.58-6.9 214.58-10.85L214.58-10.85Q214.58-13.95 213.66-16.23 212.73-18.5 211.18-19.73 209.63-20.95 207.78-20.95L207.78-20.95Q204.88-20.95 203.46-18.6 202.03-16.25 202.03-12.5L202.03-12.5Q202.03-9.15 202.86-6.78 203.68-4.4 205.18-3.18 206.68-1.95 208.68-1.95ZM231.63-21.15L227.13-10.7 227.13-16.25Q227.13-17.45 226.88-18.2 226.63-18.95 225.83-19.35 225.03-19.75 223.38-19.8L223.38-19.8Q223.38-20.35 223.48-20.8 223.58-21.25 223.83-21.65L223.83-21.65Q225.38-21.75 227.38-22.25 229.38-22.75 230.53-23.35L230.53-23.35Q230.98-23.2 231.3-22.73 231.63-22.25 231.63-21.15L231.63-21.15ZM246.43-14.95L246.43-6.35Q246.43-3.75 247.15-2.88 247.88-2 249.38-2L249.38-2Q249.53-1.55 249.58-1.05 249.63-0.55 249.63 0.15L249.63 0.15Q248.53 0.05 247.13 0.03 245.73 0 244.18 0L244.18 0Q243.18 0 242.08 0.03 240.98 0.05 240 0.08 239.03 0.1 238.23 0.15L238.23 0.15Q238.23-0.55 238.28-1.07 238.33-1.6 238.48-2L238.48-2Q240.28-2 241.1-2.93 241.93-3.85 241.93-6.35L241.93-6.35 241.93-13.95Q241.93-17.5 240.63-18.78 239.33-20.05 237.28-20.05L237.28-20.05Q235.98-20.05 234.68-19.23 233.38-18.4 232.5-16.57 231.63-14.75 231.63-11.7L231.63-11.7 231.63-6.35Q231.63-3.85 232.38-2.93 233.13-2 235.08-2L235.08-2Q235.23-1.55 235.28-1.05 235.33-0.55 235.33 0.15L235.33 0.15Q234.63 0.1 233.63 0.08 232.63 0.05 231.53 0.03 230.43 0 229.38 0L229.38 0Q228.38 0 227.28 0.03 226.18 0.05 225.18 0.08 224.18 0.1 223.43 0.15L223.43 0.15Q223.43-0.55 223.48-1.07 223.53-1.6 223.68-2L223.68-2Q225.63-2 226.38-2.93 227.13-3.85 227.13-6.35L227.13-6.35 227.13-16.25 231.63-21.15Q231.63-20.55 231.58-19.8 231.53-19.05 231.28-18.2L231.28-18.2Q231.43-18.45 231.58-18.78 231.73-19.1 232.03-19.5L232.03-19.5Q232.88-20.65 234.75-21.88 236.63-23.1 239.28-23.1L239.28-23.1Q241.18-23.1 242.8-22.33 244.43-21.55 245.43-19.78 246.43-18 246.43-14.95L246.43-14.95Z" opacity="1" transform="matrix(1,0,0,1,0,0)" fill="#d5b263" class="wordmark-text-0" data-fill-palette-color="primary"></path></svg></g></svg></g></svg></g></svg></g></svg></g></svg></g><defs></defs></svg><rect width="395.52" height="43.44640131403685" fill="none" stroke="none" visibility="hidden"></rect></g></svg></g></svg>